<?xml version="1.0" encoding="utf-8" standalone="no"?>
<!DOCTYPE svg PUBLIC "-//W3C//DTD SVG 1.1//EN"
  "http://www.w3.org/Graphics/SVG/1.1/DTD/svg11.dtd">
<svg height="288pt" version="1.1" viewBox="0 0 288 288" width="288pt" xmlns="http://www.w3.org/2000/svg" xmlns:xlink="http://www.w3.org/1999/xlink">
 <metadata>
  <rdf:RDF xmlns:cc="http://creativecommons.org/ns#" xmlns:dc="http://purl.org/dc/elements/1.1/" xmlns:rdf="http://www.w3.org/1999/02/22-rdf-syntax-ns#">
   <cc:Work>
    <dc:type rdf:resource="http://purl.org/dc/dcmitype/StillImage"/>
    <dc:date>2022-05-19T09:53:48.502215</dc:date>
    <dc:format>image/svg+xml</dc:format>
    <dc:creator>
     <cc:Agent>
      <dc:title>Matplotlib v3.4.3, https://matplotlib.org/</dc:title>
     </cc:Agent>
    </dc:creator>
   </cc:Work>
  </rdf:RDF>
 </metadata>
 <defs>
  <style type="text/css">*{stroke-linecap:butt;stroke-linejoin:round;}</style>
 </defs>
 <g id="figure_1">
  <g id="patch_1">
   <path d="M 0 288 
L 288 288 
L 288 0 
L 0 0 
z
" style="fill:#ffffff;"/>
  </g>
  <g id="axes_1">
   <g id="PathCollection_1">
    <defs>
     <path d="M 0 3.162278 
C 0.838646 3.162278 1.643056 2.82908 2.236068 2.236068 
C 2.82908 1.643056 3.162278 0.838646 3.162278 -0 
C 3.162278 -0.838646 2.82908 -1.643056 2.236068 -2.236068 
C 1.643056 -2.82908 0.838646 -3.162278 0 -3.162278 
C -0.838646 -3.162278 -1.643056 -2.82908 -2.236068 -2.236068 
C -2.82908 -1.643056 -3.162278 -0.838646 -3.162278 0 
C -3.162278 0.838646 -2.82908 1.643056 -2.236068 2.236068 
C -1.643056 2.82908 -0.838646 3.162278 0 3.162278 
z
" id="C0_0_107e293896"/>
    </defs>
    <g clip-path="url(#pe809b415b5)">
     <use style="stroke:#000000;" x="45.097826" xlink:href="#C0_0_107e293896" y="43.423043"/>
    </g>
    <g clip-path="url(#pe809b415b5)">
     <use style="stroke:#000000;" x="75.423913" xlink:href="#C0_0_107e293896" y="43.423043"/>
    </g>
    <g clip-path="url(#pe809b415b5)">
     <use style="stroke:#000000;" x="45.097826" xlink:href="#C0_0_107e293896" y="72.966522"/>
    </g>
    <g clip-path="url(#pe809b415b5)">
     <use style="stroke:#000000;" x="75.423913" xlink:href="#C0_0_107e293896" y="72.966522"/>
    </g>
   </g>
  </g>
  <g id="axes_2">
   <g id="LineCollection_1">
    <path clip-path="url(#pf4ecf99437)" d="M 104.702372 43.423043 
L 132.271542 43.423043 
" style="fill:none;stroke:#000000;"/>
   </g>
   <g id="PathCollection_2">
    <defs>
     <path d="M 0 3.162278 
C 0.838646 3.162278 1.643056 2.82908 2.236068 2.236068 
C 2.82908 1.643056 3.162278 0.838646 3.162278 -0 
C 3.162278 -0.838646 2.82908 -1.643056 2.236068 -2.236068 
C 1.643056 -2.82908 0.838646 -3.162278 0 -3.162278 
C -0.838646 -3.162278 -1.643056 -2.82908 -2.236068 -2.236068 
C -2.82908 -1.643056 -3.162278 -0.838646 -3.162278 0 
C -3.162278 0.838646 -2.82908 1.643056 -2.236068 2.236068 
C -1.643056 2.82908 -0.838646 3.162278 0 3.162278 
z
" id="C1_0_69199f84f8"/>
    </defs>
    <g clip-path="url(#pf4ecf99437)">
     <use style="stroke:#000000;" x="104.702372" xlink:href="#C1_0_69199f84f8" y="43.423043"/>
    </g>
    <g clip-path="url(#pf4ecf99437)">
     <use style="stroke:#000000;" x="132.271542" xlink:href="#C1_0_69199f84f8" y="43.423043"/>
    </g>
    <g clip-path="url(#pf4ecf99437)">
     <use style="stroke:#000000;" x="104.702372" xlink:href="#C1_0_69199f84f8" y="72.966522"/>
    </g>
    <g clip-path="url(#pf4ecf99437)">
     <use style="stroke:#000000;" x="132.271542" xlink:href="#C1_0_69199f84f8" y="72.966522"/>
    </g>
   </g>
  </g>
  <g id="axes_3">
   <g id="LineCollection_2">
    <path clip-path="url(#pb23abdd8e7)" d="M 162.928458 44.765929 
L 190.497628 44.765929 
" style="fill:none;stroke:#000000;"/>
    <path clip-path="url(#pb23abdd8e7)" d="M 162.928458 44.765929 
L 162.928458 71.623636 
" style="fill:none;stroke:#000000;"/>
   </g>
   <g id="PathCollection_3">
    <defs>
     <path d="M 0 3.162278 
C 0.838646 3.162278 1.643056 2.82908 2.236068 2.236068 
C 2.82908 1.643056 3.162278 0.838646 3.162278 -0 
C 3.162278 -0.838646 2.82908 -1.643056 2.236068 -2.236068 
C 1.643056 -2.82908 0.838646 -3.162278 0 -3.162278 
C -0.838646 -3.162278 -1.643056 -2.82908 -2.236068 -2.236068 
C -2.82908 -1.643056 -3.162278 -0.838646 -3.162278 0 
C -3.162278 0.838646 -2.82908 1.643056 -2.236068 2.236068 
C -1.643056 2.82908 -0.838646 3.162278 0 3.162278 
z
" id="C2_0_b0d927b7bc"/>
    </defs>
    <g clip-path="url(#pb23abdd8e7)">
     <use style="stroke:#000000;" x="162.928458" xlink:href="#C2_0_b0d927b7bc" y="44.765929"/>
    </g>
    <g clip-path="url(#pb23abdd8e7)">
     <use style="stroke:#000000;" x="190.497628" xlink:href="#C2_0_b0d927b7bc" y="44.765929"/>
    </g>
    <g clip-path="url(#pb23abdd8e7)">
     <use style="stroke:#000000;" x="162.928458" xlink:href="#C2_0_b0d927b7bc" y="71.623636"/>
    </g>
    <g clip-path="url(#pb23abdd8e7)">
     <use style="stroke:#000000;" x="190.497628" xlink:href="#C2_0_b0d927b7bc" y="71.623636"/>
    </g>
   </g>
  </g>
  <g id="axes_4">
   <g id="LineCollection_3">
    <path clip-path="url(#p7937dd254a)" d="M 221.154545 44.765929 
L 248.723715 44.765929 
" style="fill:none;stroke:#000000;"/>
    <path clip-path="url(#p7937dd254a)" d="M 221.154545 44.765929 
L 221.154545 71.623636 
" style="fill:none;stroke:#000000;"/>
    <path clip-path="url(#p7937dd254a)" d="M 221.154545 44.765929 
L 248.723715 71.623636 
" style="fill:none;stroke:#000000;"/>
   </g>
   <g id="PathCollection_4">
    <defs>
     <path d="M 0 3.162278 
C 0.838646 3.162278 1.643056 2.82908 2.236068 2.236068 
C 2.82908 1.643056 3.162278 0.838646 3.162278 -0 
C 3.162278 -0.838646 2.82908 -1.643056 2.236068 -2.236068 
C 1.643056 -2.82908 0.838646 -3.162278 0 -3.162278 
C -0.838646 -3.162278 -1.643056 -2.82908 -2.236068 -2.236068 
C -2.82908 -1.643056 -3.162278 -0.838646 -3.162278 0 
C -3.162278 0.838646 -2.82908 1.643056 -2.236068 2.236068 
C -1.643056 2.82908 -0.838646 3.162278 0 3.162278 
z
" id="C3_0_d5c9bf1211"/>
    </defs>
    <g clip-path="url(#p7937dd254a)">
     <use style="stroke:#000000;" x="221.154545" xlink:href="#C3_0_d5c9bf1211" y="44.765929"/>
    </g>
    <g clip-path="url(#p7937dd254a)">
     <use style="stroke:#000000;" x="248.723715" xlink:href="#C3_0_d5c9bf1211" y="44.765929"/>
    </g>
    <g clip-path="url(#p7937dd254a)">
     <use style="stroke:#000000;" x="221.154545" xlink:href="#C3_0_d5c9bf1211" y="71.623636"/>
    </g>
    <g clip-path="url(#p7937dd254a)">
     <use style="stroke:#000000;" x="248.723715" xlink:href="#C3_0_d5c9bf1211" y="71.623636"/>
    </g>
   </g>
  </g>
  <g id="axes_5">
   <g id="LineCollection_4">
    <path clip-path="url(#p125ea0e8b2)" d="M 46.476285 101.489407 
L 74.045455 101.489407 
" style="fill:none;stroke:#000000;"/>
    <path clip-path="url(#p125ea0e8b2)" d="M 46.476285 101.489407 
L 46.476285 128.347115 
" style="fill:none;stroke:#000000;"/>
    <path clip-path="url(#p125ea0e8b2)" d="M 46.476285 101.489407 
L 74.045455 128.347115 
" style="fill:none;stroke:#000000;"/>
    <path clip-path="url(#p125ea0e8b2)" d="M 74.045455 101.489407 
L 46.476285 128.347115 
" style="fill:none;stroke:#000000;"/>
   </g>
   <g id="PathCollection_5">
    <defs>
     <path d="M 0 3.162278 
C 0.838646 3.162278 1.643056 2.82908 2.236068 2.236068 
C 2.82908 1.643056 3.162278 0.838646 3.162278 -0 
C 3.162278 -0.838646 2.82908 -1.643056 2.236068 -2.236068 
C 1.643056 -2.82908 0.838646 -3.162278 0 -3.162278 
C -0.838646 -3.162278 -1.643056 -2.82908 -2.236068 -2.236068 
C -2.82908 -1.643056 -3.162278 -0.838646 -3.162278 0 
C -3.162278 0.838646 -2.82908 1.643056 -2.236068 2.236068 
C -1.643056 2.82908 -0.838646 3.162278 0 3.162278 
z
" id="C4_0_e4d9fbf5ad"/>
    </defs>
    <g clip-path="url(#p125ea0e8b2)">
     <use style="stroke:#000000;" x="46.476285" xlink:href="#C4_0_e4d9fbf5ad" y="101.489407"/>
    </g>
    <g clip-path="url(#p125ea0e8b2)">
     <use style="stroke:#000000;" x="74.045455" xlink:href="#C4_0_e4d9fbf5ad" y="101.489407"/>
    </g>
    <g clip-path="url(#p125ea0e8b2)">
     <use style="stroke:#000000;" x="46.476285" xlink:href="#C4_0_e4d9fbf5ad" y="128.347115"/>
    </g>
    <g clip-path="url(#p125ea0e8b2)">
     <use style="stroke:#000000;" x="74.045455" xlink:href="#C4_0_e4d9fbf5ad" y="128.347115"/>
    </g>
   </g>
  </g>
  <g id="axes_6">
   <g id="LineCollection_5">
    <path clip-path="url(#pe55fde55c6)" d="M 104.702372 101.489407 
L 132.271542 101.489407 
" style="fill:none;stroke:#000000;"/>
    <path clip-path="url(#pe55fde55c6)" d="M 104.702372 101.489407 
L 104.702372 128.347115 
" style="fill:none;stroke:#000000;"/>
    <path clip-path="url(#pe55fde55c6)" d="M 104.702372 101.489407 
L 132.271542 128.347115 
" style="fill:none;stroke:#000000;"/>
    <path clip-path="url(#pe55fde55c6)" d="M 132.271542 101.489407 
L 104.702372 128.347115 
" style="fill:none;stroke:#000000;"/>
    <path clip-path="url(#pe55fde55c6)" d="M 132.271542 101.489407 
L 132.271542 128.347115 
" style="fill:none;stroke:#000000;"/>
   </g>
   <g id="PathCollection_6">
    <defs>
     <path d="M 0 3.162278 
C 0.838646 3.162278 1.643056 2.82908 2.236068 2.236068 
C 2.82908 1.643056 3.162278 0.838646 3.162278 -0 
C 3.162278 -0.838646 2.82908 -1.643056 2.236068 -2.236068 
C 1.643056 -2.82908 0.838646 -3.162278 0 -3.162278 
C -0.838646 -3.162278 -1.643056 -2.82908 -2.236068 -2.236068 
C -2.82908 -1.643056 -3.162278 -0.838646 -3.162278 0 
C -3.162278 0.838646 -2.82908 1.643056 -2.236068 2.236068 
C -1.643056 2.82908 -0.838646 3.162278 0 3.162278 
z
" id="C5_0_975cb816b6"/>
    </defs>
    <g clip-path="url(#pe55fde55c6)">
     <use style="stroke:#000000;" x="104.702372" xlink:href="#C5_0_975cb816b6" y="101.489407"/>
    </g>
    <g clip-path="url(#pe55fde55c6)">
     <use style="stroke:#000000;" x="132.271542" xlink:href="#C5_0_975cb816b6" y="101.489407"/>
    </g>
    <g clip-path="url(#pe55fde55c6)">
     <use style="stroke:#000000;" x="104.702372" xlink:href="#C5_0_975cb816b6" y="128.347115"/>
    </g>
    <g clip-path="url(#pe55fde55c6)">
     <use style="stroke:#000000;" x="132.271542" xlink:href="#C5_0_975cb816b6" y="128.347115"/>
    </g>
   </g>
  </g>
  <g id="axes_7">
   <g id="LineCollection_6">
    <path clip-path="url(#p205f2f33f6)" d="M 162.928458 101.489407 
L 190.497628 101.489407 
" style="fill:none;stroke:#000000;"/>
    <path clip-path="url(#p205f2f33f6)" d="M 162.928458 101.489407 
L 162.928458 128.347115 
" style="fill:none;stroke:#000000;"/>
    <path clip-path="url(#p205f2f33f6)" d="M 162.928458 101.489407 
L 190.497628 128.347115 
" style="fill:none;stroke:#000000;"/>
    <path clip-path="url(#p205f2f33f6)" d="M 190.497628 101.489407 
L 162.928458 128.347115 
" style="fill:none;stroke:#000000;"/>
    <path clip-path="url(#p205f2f33f6)" d="M 190.497628 101.489407 
L 190.497628 128.347115 
" style="fill:none;stroke:#000000;"/>
    <path clip-path="url(#p205f2f33f6)" d="M 162.928458 128.347115 
L 190.497628 128.347115 
" style="fill:none;stroke:#000000;"/>
   </g>
   <g id="PathCollection_7">
    <defs>
     <path d="M 0 3.162278 
C 0.838646 3.162278 1.643056 2.82908 2.236068 2.236068 
C 2.82908 1.643056 3.162278 0.838646 3.162278 -0 
C 3.162278 -0.838646 2.82908 -1.643056 2.236068 -2.236068 
C 1.643056 -2.82908 0.838646 -3.162278 0 -3.162278 
C -0.838646 -3.162278 -1.643056 -2.82908 -2.236068 -2.236068 
C -2.82908 -1.643056 -3.162278 -0.838646 -3.162278 0 
C -3.162278 0.838646 -2.82908 1.643056 -2.236068 2.236068 
C -1.643056 2.82908 -0.838646 3.162278 0 3.162278 
z
" id="C6_0_fc81aa76c0"/>
    </defs>
    <g clip-path="url(#p205f2f33f6)">
     <use style="stroke:#000000;" x="162.928458" xlink:href="#C6_0_fc81aa76c0" y="101.489407"/>
    </g>
    <g clip-path="url(#p205f2f33f6)">
     <use style="stroke:#000000;" x="190.497628" xlink:href="#C6_0_fc81aa76c0" y="101.489407"/>
    </g>
    <g clip-path="url(#p205f2f33f6)">
     <use style="stroke:#000000;" x="162.928458" xlink:href="#C6_0_fc81aa76c0" y="128.347115"/>
    </g>
    <g clip-path="url(#p205f2f33f6)">
     <use style="stroke:#000000;" x="190.497628" xlink:href="#C6_0_fc81aa76c0" y="128.347115"/>
    </g>
   </g>
  </g>
  <g id="axes_8">
   <g id="LineCollection_7">
    <path clip-path="url(#p5350d63819)" d="M 221.154545 101.489407 
L 248.723715 101.489407 
" style="fill:none;stroke:#000000;"/>
    <path clip-path="url(#p5350d63819)" d="M 221.154545 101.489407 
L 221.154545 128.347115 
" style="fill:none;stroke:#000000;"/>
    <path clip-path="url(#p5350d63819)" d="M 248.723715 101.489407 
L 221.154545 128.347115 
" style="fill:none;stroke:#000000;"/>
   </g>
   <g id="PathCollection_8">
    <defs>
     <path d="M 0 3.162278 
C 0.838646 3.162278 1.643056 2.82908 2.236068 2.236068 
C 2.82908 1.643056 3.162278 0.838646 3.162278 -0 
C 3.162278 -0.838646 2.82908 -1.643056 2.236068 -2.236068 
C 1.643056 -2.82908 0.838646 -3.162278 0 -3.162278 
C -0.838646 -3.162278 -1.643056 -2.82908 -2.236068 -2.236068 
C -2.82908 -1.643056 -3.162278 -0.838646 -3.162278 0 
C -3.162278 0.838646 -2.82908 1.643056 -2.236068 2.236068 
C -1.643056 2.82908 -0.838646 3.162278 0 3.162278 
z
" id="C7_0_4638802e45"/>
    </defs>
    <g clip-path="url(#p5350d63819)">
     <use style="stroke:#000000;" x="221.154545" xlink:href="#C7_0_4638802e45" y="101.489407"/>
    </g>
    <g clip-path="url(#p5350d63819)">
     <use style="stroke:#000000;" x="248.723715" xlink:href="#C7_0_4638802e45" y="101.489407"/>
    </g>
    <g clip-path="url(#p5350d63819)">
     <use style="stroke:#000000;" x="221.154545" xlink:href="#C7_0_4638802e45" y="128.347115"/>
    </g>
    <g clip-path="url(#p5350d63819)">
     <use style="stroke:#000000;" x="248.723715" xlink:href="#C7_0_4638802e45" y="128.347115"/>
    </g>
   </g>
  </g>
  <g id="axes_9">
   <g id="LineCollection_8">
    <path clip-path="url(#pe2c28caaba)" d="M 46.476285 158.212885 
L 74.045455 158.212885 
" style="fill:none;stroke:#000000;"/>
    <path clip-path="url(#pe2c28caaba)" d="M 46.476285 158.212885 
L 46.476285 185.070593 
" style="fill:none;stroke:#000000;"/>
    <path clip-path="url(#pe2c28caaba)" d="M 74.045455 158.212885 
L 74.045455 185.070593 
" style="fill:none;stroke:#000000;"/>
   </g>
   <g id="PathCollection_9">
    <defs>
     <path d="M 0 3.162278 
C 0.838646 3.162278 1.643056 2.82908 2.236068 2.236068 
C 2.82908 1.643056 3.162278 0.838646 3.162278 -0 
C 3.162278 -0.838646 2.82908 -1.643056 2.236068 -2.236068 
C 1.643056 -2.82908 0.838646 -3.162278 0 -3.162278 
C -0.838646 -3.162278 -1.643056 -2.82908 -2.236068 -2.236068 
C -2.82908 -1.643056 -3.162278 -0.838646 -3.162278 0 
C -3.162278 0.838646 -2.82908 1.643056 -2.236068 2.236068 
C -1.643056 2.82908 -0.838646 3.162278 0 3.162278 
z
" id="C8_0_4fc9955382"/>
    </defs>
    <g clip-path="url(#pe2c28caaba)">
     <use style="stroke:#000000;" x="46.476285" xlink:href="#C8_0_4fc9955382" y="158.212885"/>
    </g>
    <g clip-path="url(#pe2c28caaba)">
     <use style="stroke:#000000;" x="74.045455" xlink:href="#C8_0_4fc9955382" y="158.212885"/>
    </g>
    <g clip-path="url(#pe2c28caaba)">
     <use style="stroke:#000000;" x="46.476285" xlink:href="#C8_0_4fc9955382" y="185.070593"/>
    </g>
    <g clip-path="url(#pe2c28caaba)">
     <use style="stroke:#000000;" x="74.045455" xlink:href="#C8_0_4fc9955382" y="185.070593"/>
    </g>
   </g>
  </g>
  <g id="axes_10">
   <g id="LineCollection_9">
    <path clip-path="url(#p56d94a99a8)" d="M 104.702372 158.212885 
L 132.271542 158.212885 
" style="fill:none;stroke:#000000;"/>
    <path clip-path="url(#p56d94a99a8)" d="M 104.702372 158.212885 
L 104.702372 185.070593 
" style="fill:none;stroke:#000000;"/>
    <path clip-path="url(#p56d94a99a8)" d="M 132.271542 158.212885 
L 132.271542 185.070593 
" style="fill:none;stroke:#000000;"/>
    <path clip-path="url(#p56d94a99a8)" d="M 104.702372 185.070593 
L 132.271542 185.070593 
" style="fill:none;stroke:#000000;"/>
   </g>
   <g id="PathCollection_10">
    <defs>
     <path d="M 0 3.162278 
C 0.838646 3.162278 1.643056 2.82908 2.236068 2.236068 
C 2.82908 1.643056 3.162278 0.838646 3.162278 -0 
C 3.162278 -0.838646 2.82908 -1.643056 2.236068 -2.236068 
C 1.643056 -2.82908 0.838646 -3.162278 0 -3.162278 
C -0.838646 -3.162278 -1.643056 -2.82908 -2.236068 -2.236068 
C -2.82908 -1.643056 -3.162278 -0.838646 -3.162278 0 
C -3.162278 0.838646 -2.82908 1.643056 -2.236068 2.236068 
C -1.643056 2.82908 -0.838646 3.162278 0 3.162278 
z
" id="C9_0_b2dc04bde2"/>
    </defs>
    <g clip-path="url(#p56d94a99a8)">
     <use style="stroke:#000000;" x="104.702372" xlink:href="#C9_0_b2dc04bde2" y="158.212885"/>
    </g>
    <g clip-path="url(#p56d94a99a8)">
     <use style="stroke:#000000;" x="132.271542" xlink:href="#C9_0_b2dc04bde2" y="158.212885"/>
    </g>
    <g clip-path="url(#p56d94a99a8)">
     <use style="stroke:#000000;" x="104.702372" xlink:href="#C9_0_b2dc04bde2" y="185.070593"/>
    </g>
    <g clip-path="url(#p56d94a99a8)">
     <use style="stroke:#000000;" x="132.271542" xlink:href="#C9_0_b2dc04bde2" y="185.070593"/>
    </g>
   </g>
  </g>
  <g id="axes_11">
   <g id="LineCollection_10">
    <path clip-path="url(#p8c42854fed)" d="M 162.928458 158.212885 
L 190.497628 158.212885 
" style="fill:none;stroke:#000000;"/>
    <path clip-path="url(#p8c42854fed)" d="M 162.928458 185.070593 
L 190.497628 185.070593 
" style="fill:none;stroke:#000000;"/>
   </g>
   <g id="PathCollection_11">
    <defs>
     <path d="M 0 3.162278 
C 0.838646 3.162278 1.643056 2.82908 2.236068 2.236068 
C 2.82908 1.643056 3.162278 0.838646 3.162278 -0 
C 3.162278 -0.838646 2.82908 -1.643056 2.236068 -2.236068 
C 1.643056 -2.82908 0.838646 -3.162278 0 -3.162278 
C -0.838646 -3.162278 -1.643056 -2.82908 -2.236068 -2.236068 
C -2.82908 -1.643056 -3.162278 -0.838646 -3.162278 0 
C -3.162278 0.838646 -2.82908 1.643056 -2.236068 2.236068 
C -1.643056 2.82908 -0.838646 3.162278 0 3.162278 
z
" id="Ca_0_f8576a742b"/>
    </defs>
    <g clip-path="url(#p8c42854fed)">
     <use style="stroke:#000000;" x="162.928458" xlink:href="#Ca_0_f8576a742b" y="158.212885"/>
    </g>
    <g clip-path="url(#p8c42854fed)">
     <use style="stroke:#000000;" x="190.497628" xlink:href="#Ca_0_f8576a742b" y="158.212885"/>
    </g>
    <g clip-path="url(#p8c42854fed)">
     <use style="stroke:#000000;" x="162.928458" xlink:href="#Ca_0_f8576a742b" y="185.070593"/>
    </g>
    <g clip-path="url(#p8c42854fed)">
     <use style="stroke:#000000;" x="190.497628" xlink:href="#Ca_0_f8576a742b" y="185.070593"/>
    </g>
   </g>
  </g>
 </g>
 <defs>
  <clipPath id="pe809b415b5">
   <rect height="47.269565" width="48.521739" x="36" y="34.56"/>
  </clipPath>
  <clipPath id="pf4ecf99437">
   <rect height="47.269565" width="48.521739" x="94.226087" y="34.56"/>
  </clipPath>
  <clipPath id="pb23abdd8e7">
   <rect height="47.269565" width="48.521739" x="152.452174" y="34.56"/>
  </clipPath>
  <clipPath id="p7937dd254a">
   <rect height="47.269565" width="48.521739" x="210.678261" y="34.56"/>
  </clipPath>
  <clipPath id="p125ea0e8b2">
   <rect height="47.269565" width="48.521739" x="36" y="91.283478"/>
  </clipPath>
  <clipPath id="pe55fde55c6">
   <rect height="47.269565" width="48.521739" x="94.226087" y="91.283478"/>
  </clipPath>
  <clipPath id="p205f2f33f6">
   <rect height="47.269565" width="48.521739" x="152.452174" y="91.283478"/>
  </clipPath>
  <clipPath id="p5350d63819">
   <rect height="47.269565" width="48.521739" x="210.678261" y="91.283478"/>
  </clipPath>
  <clipPath id="pe2c28caaba">
   <rect height="47.269565" width="48.521739" x="36" y="148.006957"/>
  </clipPath>
  <clipPath id="p56d94a99a8">
   <rect height="47.269565" width="48.521739" x="94.226087" y="148.006957"/>
  </clipPath>
  <clipPath id="p8c42854fed">
   <rect height="47.269565" width="48.521739" x="152.452174" y="148.006957"/>
  </clipPath>
 </defs>
</svg>
